# xmcd CD database file
# Copyright (C) 1993-1998 Ti Kan
#
# Track frame offsets:
#  150
#  12380
#  24380
#  37745
#  52687
#  64880
#  76337
#  87887
#  100965
#  112980
#  126475
#  137090
#  150962
#  164087
#  177105
#  187997
#  203427
#  212982
#  224952
#  238795
#  247740
#  260000
#  272080
#  281990
#  293612
#  301575
#  313217
#  322990
#
# Disc length: 4412 seconds
#
# Revision: 1
# Processed by: cddbd v1.4b41PL1 Copyright (c) Steve Scherf et al.
# Submitted via: CDWizzard Release:4.35
#
DISCID=8c113a1c
DTITLE=Johnny "Guitar" Watson - HOT Just Like TNT
DYEAR=1900
DGENRE=
TTITLE0=Hot Little Mama
TTITLE1=I Love To Love You
TTITLE2=Hot Little Mama
TTITLE3=Don't Touch Me (I'm Gonna Hit The Highway)
TTITLE4=Too Tired
TTITLE5=Lonely Girl
TTITLE6=Ain't Gonna Hush
TTITLE7=Those Lonely, Lonely Nights
TTITLE8=Oh Baby
TTITLE9=Someone Cares For Me
TTITLE10=Ruben
TTITLE11=Give A Little
TTITLE12=Love Me Baby
TTITLE13=She Moves Me 
TTITLE14=Ruben
TTITLE15=Three Hours Past Midnight
TTITLE16=Love Bandit (Gangster Of Love)
TTITLE17=Telephone Boogie
TTITLE18=Dee's Boogie
TTITLE19=I Got A Girl (That Lives Over Yonder)
TTITLE20=Gangster Of Love
TTITLE21=One Room Country Shack
TTITLE22=Deana Baby
TTITLE23=Honey
TTITLE24=Come On Baby
TTITLE25=My Baby And Me
TTITLE26=You've Been Gone Too Long
TTITLE27=Come On Baby
EXTD=
EXTT0=
EXTT1=
EXTT2=
EXTT3=
EXTT4=
EXTT5=
EXTT6=
EXTT7=
EXTT8=
EXTT9=
EXTT10=
EXTT11=
EXTT12=
EXTT13=
EXTT14=
EXTT15=
EXTT16=
EXTT17=
EXTT18=
EXTT19=
EXTT20=
EXTT21=
EXTT22=
EXTT23=
EXTT24=
EXTT25=
EXTT26=
EXTT27=
PLAYORDER=
